<svg width="32" height="32" viewBox="0 0 32 32" fill="none" xmlns="http://www.w3.org/2000/svg">
  <defs>
    <linearGradient id="gradient" x1="0%" y1="0%" x2="100%" y2="100%">
      <stop offset="0%" style="stop-color:#6366f1"/>
      <stop offset="100%" style="stop-color:#8b5cf6"/>
    </linearGradient>
  </defs>
  <rect width="32" height="32" rx="8" fill="url(#gradient)"/>
  <path d="M10 22V10h6c1.1 0 2.04.39 2.83 1.17.78.78 1.17 1.73 1.17 2.83s-.39 2.04-1.17 2.83c-.79.78-1.73 1.17-2.83 1.17h-3v4h-3zm3-7h3c.28 0 .52-.1.71-.29.2-.2.29-.43.29-.71s-.1-.52-.29-.71A.96.96 0 0016 13h-3v2z" fill="white"/>
  <circle cx="22" cy="20" r="3" fill="white" fill-opacity="0.9"/>
  <circle cx="22" cy="20" r="1.5" fill="url(#gradient)"/>
</svg>
